<?xml version="1.0" encoding="utf-8"?>
<!-- Generator: Adobe Illustrator 19.1.0, SVG Export Plug-In . SVG Version: 6.00 Build 0)  -->
<svg version="1.1" id="Layer_1" xmlns:sketch="http://www.bohemiancoding.com/sketch/ns"
	 xmlns="http://www.w3.org/2000/svg" xmlns:xlink="http://www.w3.org/1999/xlink" x="0px" y="0px" viewBox="-370 533.5 100 96.6"
	 style="enable-background:new -370 533.5 100 96.6;" xml:space="preserve">
<style type="text/css">
	.st0{fill:#999999;}
</style>
<title>profile-images</title>
<desc>Created with Sketch.</desc>
<g sketch:type="MSPage">
	<path sketch:type="MSShapeGroup" class="st0" d="M-293.5,556v6.1l7.4,1.3l-7.4,40.7v8.1h-61.3l-0.4,2.4l63.8,11.5l12.2-67.6
		L-293.5,556L-293.5,556z M-361,609.2h64.9v-68.7H-361V609.2z M-346.3,592.4c2-7.9,9.2-13.7,17.7-13.7s15.7,5.9,17.7,13.7H-346.3
		L-346.3,592.4z M-335.4,567c0-3.8,3.1-6.9,6.9-6.9c3.8,0,6.9,3.1,6.9,6.9c0,3.8-3.1,6.9-6.9,6.9
		C-332.4,573.9-335.4,570.8-335.4,567L-335.4,567z M-302.1,592.4h-3.8c-1.6-7.9-7.2-14.3-14.5-17.1c2.2-2.1,3.5-5.1,3.5-8.4
		c0-6.4-5.2-11.7-11.7-11.7c-6.4,0-11.7,5.2-11.7,11.7c0,3.3,1.4,6.2,3.5,8.4c-7.4,2.8-12.9,9.2-14.5,17.1h-3.8v-45.9h52.9V592.4
		L-302.1,592.4z"/>
</g>
</svg>
