<?xml version="1.0" encoding="utf-8"?>
<!-- Generator: Adobe Illustrator 19.1.0, SVG Export Plug-In . SVG Version: 6.00 Build 0)  -->
<svg version="1.1" id="Layer_1" xmlns="http://www.w3.org/2000/svg" xmlns:xlink="http://www.w3.org/1999/xlink" x="0px" y="0px"
	 viewBox="0 0 60 44.3" style="enable-background:new 0 0 60 44.3;" xml:space="preserve">
<style type="text/css">
	.st0{fill:#FFFFFF;}
</style>
<path class="st0" d="M56,18.1H13.7L25,6.8c1.6-1.6,1.6-4.1,0-5.7s-4.1-1.6-5.7,0L1.2,19.3l0,0c-0.2,0.2-0.4,0.4-0.5,0.6
	c-0.1,0.1-0.1,0.2-0.2,0.3c-0.1,0.1-0.2,0.3-0.2,0.4c0,0.1-0.1,0.2-0.1,0.4c0,0.1-0.1,0.3-0.1,0.4C0,21.6,0,21.8,0,22
	c0,0.1,0,0.1,0,0.2c0,0.1,0,0.1,0,0.2c0,0.2,0,0.4,0.1,0.6c0,0.1,0.1,0.3,0.1,0.4c0,0.1,0.1,0.2,0.1,0.3c0.1,0.2,0.1,0.3,0.2,0.4
	c0,0.1,0.1,0.2,0.1,0.2C0.8,24.6,1,24.8,1.2,25l18.1,18.1c0.8,0.8,1.8,1.2,2.8,1.2s2-0.4,2.8-1.2c1.6-1.6,1.6-4.1,0-5.7L13.7,26.1
	H56c2.2,0,4-1.8,4-4S58.2,18.1,56,18.1z"/>
</svg>
