<?xml version="1.0" encoding="utf-8"?>
<!-- Generator: Adobe Illustrator 19.1.0, SVG Export Plug-In . SVG Version: 6.00 Build 0)  -->
<svg version="1.1" id="Layer_1" xmlns="http://www.w3.org/2000/svg" xmlns:xlink="http://www.w3.org/1999/xlink" x="0px" y="0px"
	 viewBox="0 0 40.7 26" style="enable-background:new 0 0 40.7 26;" xml:space="preserve">
<style type="text/css">
	.st0{fill:#FFFFFF;}
</style>
<g>
	<path class="st0" d="M40.7,3.5c0,1.2-0.9,2.1-2.1,2.1H11.9c-1.2,0-2.1-0.9-2.1-2.1l0,0c0-1.2,0.9-2.1,2.1-2.1h26.7
		C39.7,1.4,40.7,2.3,40.7,3.5L40.7,3.5z"/>
	<circle class="st0" cx="3.5" cy="3.5" r="3.5"/>
	<path class="st0" d="M40.7,13c0,1.2-0.9,2.1-2.1,2.1H11.9c-1.2,0-2.1-0.9-2.1-2.1l0,0c0-1.2,0.9-2.1,2.1-2.1h26.7
		C39.7,10.9,40.7,11.8,40.7,13L40.7,13z"/>
	<circle class="st0" cx="3.5" cy="13" r="3.5"/>
	<path class="st0" d="M40.7,22.4c0,1.2-0.9,2.1-2.1,2.1H11.9c-1.2,0-2.1-0.9-2.1-2.1l0,0c0-1.2,0.9-2.1,2.1-2.1h26.7
		C39.7,20.3,40.7,21.3,40.7,22.4L40.7,22.4z"/>
	<circle class="st0" cx="3.5" cy="22.4" r="3.5"/>
</g>
</svg>
