<?xml version="1.0" encoding="utf-8"?>
<!-- Generator: Adobe Illustrator 19.1.0, SVG Export Plug-In . SVG Version: 6.00 Build 0)  -->
<svg version="1.1" id="Layer_1" xmlns="http://www.w3.org/2000/svg" xmlns:xlink="http://www.w3.org/1999/xlink" x="0px" y="0px"
	 viewBox="0 0 46.1 28.8" style="enable-background:new 0 0 46.1 28.8;" xml:space="preserve">
<style type="text/css">
	.st0{fill:#FFFFFF;}
</style>
<g>
	<path class="st0" d="M46.1,21.7c0-3-2.8-5.5-6.5-6.2V14c1.4-0.9,2.3-2.8,2.3-4.9c0-3-1.9-5.5-4.3-5.5s-4.3,2.5-4.3,5.5
		c0,2.1,0.9,3.9,2.3,4.9v1.4c-1.4,0.3-2.7,0.8-3.8,1.5c2.7,1.6,4.6,4,5.3,6.7h7.1c1.1,0,1.9-0.9,1.9-1.9
		C46.1,21.8,46.1,21.7,46.1,21.7L46.1,21.7L46.1,21.7z"/>
	<path class="st0" d="M14.4,17c-1-0.7-2.3-1.2-3.8-1.5V14c1.4-0.9,2.3-2.8,2.3-4.9c0-3-1.9-5.5-4.3-5.5S4.2,6.1,4.2,9.2
		c0,2.1,0.9,3.9,2.3,4.9v1.4C2.8,16.2,0,18.7,0,21.7h0c0,0,0,0.1,0,0.1c0,1.1,0.9,1.9,1.9,1.9h7.1C9.7,21,11.6,18.6,14.4,17z"/>
	<path class="st0" d="M35.4,25.6v-0.3c0-0.2,0-0.4-0.1-0.6c-0.1-0.3-0.1-0.6-0.2-0.9c-0.7-2.2-2.4-4-4.8-5.3
		C29,17.7,27.5,17.2,26,17v-2.1c2-1.3,3.3-4,3.3-7c0-4.4-2.8-7.9-6.2-7.9s-6.2,3.5-6.2,7.9c0,3,1.3,5.7,3.3,7V17
		c-1.5,0.3-3,0.8-4.2,1.5c-2.4,1.3-4.1,3.1-4.8,5.3c-0.1,0.3-0.2,0.6-0.2,0.9c-0.1,0.2-0.1,0.4-0.1,0.6v0.3c0,0.1,0,0.2,0,0.3h0v0.9
		c0,1.1,0.9,2,2,2h20.7c1.1,0,2-0.9,2-2v-0.9h0C35.4,25.8,35.4,25.7,35.4,25.6z"/>
</g>
</svg>
